#!OML:ASF X:\für Bonn\!DataBase\2005_08_12_Daniel\c3d\Daniel.ASF
:FULLY-SPECIFIED
:DEGREES
64
root 12.2065 15.6687 12.5409 894.886 -47.7071 -185.865
lowerback 40.664 6.1506 -7.19831
upperback 8.40886 1.47148 -5.81069
thorax -10.1925 -0.139332 -3.02163
lowerneck 0.964168 -0.557649 -3.62234
upperneck 0.139074 -0.784057 4.2684
head -0.0876946 -0.405226 1.94924
rclavicle 1.03368e-014 6.36111e-014
rhumerus -37.649 -3.22335 -88.0209
rradius 67.5639
rwrist 9.56431
rhand -33.762 7.5184
rfingers 7.12502
rthumb -6.94984 -22.3475
lclavicle 1.03368e-014 6.36111e-014
lhumerus -30.8662 23.4918 74.7461
lradius 69.112
lwrist -29.151
lhand -28.7857 2.95106
lfingers 7.12502
lthumb -2.14477 32.92
rfemur 19.0165 -2.29793 18.2852
rtibia 47.7752
rfoot -18.0712 4.64313
rtoes -7.3852
lfemur -39.2236 6.53836 -26.3949
ltibia 56.2641
lfoot -10.1597 -14.6867
ltoes -7.46672
65
root 12.1045 15.6874 12.4427 895.155 -48.0813 -185.919
lowerback 40.7181 6.16067 -7.36476
upperback 8.34919 1.41689 -5.81231
thorax -10.2768 -0.153744 -2.9201
lowerneck 1.08313 -0.606593 -3.71225
upperneck 0.117561 -0.853895 4.42566
head -0.110768 -0.442154 2.01759
rclavicle 3.97569e-014 -3.02153e-014
rhumerus -37.6763 -3.20433 -87.8746
rradius 67.2723
rwrist 9.65234
rhand -33.7719 7.58527
rfingers 7.12502
rthumb -6.95942 -22.2803
lclavicle 3.97569e-014 -3.02153e-014
lhumerus -30.6511 23.4441 74.8866
lradius 69.0321
lwrist -29.2099
lhand -28.7261 2.90704
lfingers 7.12502
lthumb -2.08719 32.8766
rfemur 19.1627 -2.47439 18.2959
rtibia 47.6571
rfoot -16.7399 4.45567
rtoes -7.34588
lfemur -39.193 6.61353 -26.5116
ltibia 56.7537
lfoot -10.8093 -15.1538
ltoes -7.39755
66
root 12.0028 15.708 12.3441 895.442 -48.4667 -185.972
lowerback 40.7347 6.15972 -7.56541
upperback 8.28846 1.34415 -5.7984
thorax -10.3502 -0.174811 -2.77556
lowerneck 1.19274 -0.644793 -3.78697
upperneck 0.0863439 -0.908702 4.56129
head -0.135976 -0.471493 2.07633
rclavicle -1.90833e-014 4.77083e-014
rhumerus -37.6716 -3.19224 -87.7409
rradius 66.9902
rwrist 9.75544
rhand -33.7142 7.65874
rfingers 7.12502
rthumb -6.90364 -22.2087
lclavicle -1.90833e-014 4.77083e-014
lhumerus -30.4659 23.4273 75.0317
lradius 68.9774
lwrist -29.2902
lhand -28.7509 2.87115
lfingers 7.12502
lthumb -2.11117 32.8404
rfemur 19.2259 -2.66314 18.2891
rtibia 47.6038
rfoot -15.2576 4.25861
rtoes -6.98167
lfemur -39.137 6.62111 -26.6073
ltibia 57.1884
lfoot -11.4907 -15.5998
ltoes -7.50682
67
root 11.902 15.7302 12.2469 895.687 -48.8636 -186.002
lowerback 40.7782 6.13582 -7.74692
upperback 8.22275 1.24932 -5.77402
thorax -10.4375 -0.205339 -2.6207
lowerneck 1.263 -0.667145 -3.81158
upperneck 0.100858 -0.941734 4.62138
head -0.141637 -0.489132 2.10094
rclavicle 2.62396e-014 4.77083e-014
rhumerus -37.6489 -3.10713 -87.6386
rradius 66.6702
rwrist 9.87371
rhand -33.7266 7.6271
rfingers 7.12502
rthumb -6.91565 -22.2399
lclavicle 2.62396e-014 4.77083e-014
lhumerus -30.307 23.4137 75.1673
lradius 68.9303
lwrist -29.3086
lhand -28.7583 2.83896
lfingers 7.12502
lthumb -2.11823 32.8082
rfemur 19.252 -2.89664 18.2532
rtibia 47.6197
rfoot -13.6502 4.10138
rtoes -6.56728
lfemur -39.0202 6.56111 -26.6741
ltibia 57.5729
lfoot -12.1457 -15.9502
ltoes -7.79379
68
root 11.8013 15.7539 12.1512 895.958 -49.2555 -186.06
lowerback 40.7778 6.09478 -7.91831
upperback 8.18867 1.13779 -5.77079
thorax -10.4748 -0.246308 -2.48426
lowerneck 1.24482 -0.670935 -3.80755
upperneck 0.126786 -0.947485 4.6964
head -0.129921 -0.492251 2.12464
rclavicle -6.44062e-014 9.85972e-014
rhumerus -37.5661 -2.98962 -87.5772
rradius 66.3652
rwrist 9.91007
rhand -33.7798 7.62965
rfingers 7.12502
rthumb -6.96698 -22.2357
lclavicle -6.44062e-014 9.85972e-014
lhumerus -30.1193 23.4126 75.3086
lradius 68.9125
lwrist -29.3388
lhand -28.8287 2.80174
lfingers 7.12502
lthumb -2.18628 32.7703
rfemur 19.2106 -3.16858 18.1575
rtibia 47.741
rfoot -11.9328 3.88813
rtoes -6.1482
lfemur -38.88 6.48268 -26.7496
ltibia 57.9034
lfoot -12.7454 -16.2935
ltoes -7.98619
69
root 11.7016 15.7776 12.0579 896.211 -49.6429 -186.109
lowerback 40.7845 6.0457 -8.06829
upperback 8.14467 1.02908 -5.75156
thorax -10.5252 -0.284667 -2.34297
lowerneck 1.24369 -0.68193 -3.79852
upperneck 0.186051 -0.964115 4.72188
head -0.110433 -0.500628 2.13119
rclavicle -4.13472e-014 7.95139e-015
rhumerus -37.5145 -2.8944 -87.4881
rradius 66.0898
rwrist 10.0252
rhand -33.8026 7.6056
rfingers 7.12502
rthumb -6.98898 -22.259
lclavicle -4.13472e-014 7.95139e-015
lhumerus -29.9793 23.396 75.463
lradius 68.9108
lwrist -29.3744
lhand -28.8609 2.79636
lfingers 7.12502
lthumb -2.21732 32.7646
rfemur 19.0937 -3.48751 18.0343
rtibia 47.9844
rfoot -10.1613 3.6104
rtoes -5.9133
lfemur -38.7134 6.4063 -26.8207
ltibia 58.1941
lfoot -13.3558 -16.6098
ltoes -8.18921
70
root 11.602 15.8021 11.9679 896.431 -49.9674 -186.128
lowerback 40.7784 5.99177 -8.16876
upperback 8.1033 0.933275 -5.75014
thorax -10.5688 -0.318349 -2.25088
lowerneck 1.20449 -0.689646 -3.7569
upperneck 0.276822 -0.975877 4.72914
head -0.075067 -0.50599 2.1255
rclavicle 4.77083e-015 -1.55847e-013
rhumerus -37.4676 -2.78411 -87.4078
rradius 65.8733
rwrist 10.0891
rhand -33.7951 7.54965
rfingers 7.12502
rthumb -6.98178 -22.3152
lclavicle 4.77083e-015 -1.55847e-013
lhumerus -29.8394 23.3609 75.5975
lradius 68.9363
lwrist -29.3946
lhand -28.8667 2.84157
lfingers 7.12502
lthumb -2.22299 32.8097
rfemur 18.8744 -3.7747 17.9024
rtibia 48.3903
rfoot -8.46121 3.29953
rtoes -6.12303
lfemur -38.5194 6.33907 -26.8605
ltibia 58.4414
lfoot -13.9352 -16.8898
ltoes -8.32766
71
root 11.5029 15.8279 11.8788 896.668 -50.253 -186.175
lowerback 40.7226 5.94626 -8.30461
upperback 8.07899 0.842847 -5.73006
thorax -10.5764 -0.350663 -2.12124
lowerneck 1.16903 -0.678331 -3.76927
upperneck 0.340688 -0.961955 4.73581
head -0.049662 -0.498523 2.12949
rclavicle 3.10104e-014 2.38542e-014
rhumerus -37.424 -2.55564 -87.3204
rradius 65.7295
rwrist 10.0499
rhand -33.8047 7.47972
rfingers 7.12502
rthumb -6.99104 -22.3848
lclavicle 3.10104e-014 2.38542e-014
lhumerus -29.7178 23.3918 75.7664
lradius 68.9779
lwrist -29.4411
lhand -28.8569 2.84394
lfingers 7.12502
lthumb -2.2135 32.8122
rfemur 18.557 -4.03621 17.7601
rtibia 48.9522
rfoot -6.8694 3.00169
rtoes -6.56748
lfemur -38.3029 6.26491 -26.8965
ltibia 58.6587
lfoot -14.5007 -17.1459
ltoes -8.28275
72
root 11.4039 15.8532 11.7921 896.855 -50.5127 -186.186
lowerback 40.673 5.88403 -8.36122
upperback 8.06128 0.757451 -5.74341
thorax -10.5796 -0.382831 -2.06974
lowerneck 1.09474 -0.666639 -3.70432
upperneck 0.471538 -0.948005 4.72947
head 0.00281742 -0.490479 2.11481
rclavicle -5.56597e-014 4.92986e-014
rhumerus -37.441 -2.31534 -87.2607
rradius 65.7181
rwrist 9.91729
rhand -33.7422 7.31196
rfingers 7.12502
rthumb -6.93075 -22.5546
lclavicle -5.56597e-014 4.92986e-014
lhumerus -29.551 23.3539 75.9135
lradius 69.0078
lwrist -29.4327
lhand -28.797 2.94631
lfingers 7.12502
lthumb -2.15566 32.9152
rfemur 18.1606 -4.28555 17.6385
rtibia 49.6539
rfoot -5.34555 2.6532
rtoes -7.20214
lfemur -38.0453 6.16637 -26.8974
ltibia 58.8466
lfoot -15.062 -17.345
ltoes -8.24466
73
root 11.3056 15.8778 11.7074 897.039 -50.751 -186.197
lowerback 40.6029 5.82386 -8.40928
upperback 8.05212 0.681714 -5.75348
thorax -10.5667 -0.411559 -2.02243
lowerneck 1.00205 -0.666373 -3.59524
upperneck 0.611789 -0.948424 4.67254
head 0.0615041 -0.489095 2.07557
rclavicle -3.49861e-014 6.04305e-014
rhumerus -37.4888 -2.12986 -87.1846
rradius 65.7792
rwrist 9.83162
rhand -33.6723 7.14132
rfingers 7.12502
rthumb -6.8632 -22.7274
lclavicle -3.49861e-014 6.04305e-014
lhumerus -29.4003 23.3022 76.0552
lradius 69.0624
lwrist -29.4558
lhand -28.7683 2.99751
lfingers 7.12502
lthumb -2.12798 32.9666
rfemur 17.6782 -4.48825 17.5525
rtibia 50.4472
rfoot -3.83454 2.30793
rtoes -7.95361
lfemur -37.7896 6.0696 -26.8956
ltibia 59.0162
lfoot -15.5983 -17.5621
ltoes -8.1892
74
root 11.2081 15.9012 11.6242 897.181 -50.972 -186.203
lowerback 40.5461 5.7523 -8.44094
upperback 8.05393 0.595195 -5.76175
thorax -10.5456 -0.447014 -1.9768
lowerneck 0.950674 -0.643846 -3.58904
upperneck 0.715425 -0.920588 4.6859
head 0.101317 -0.474462 2.07834
rclavicle -5.40694e-014 -6.36111e-015
rhumerus -37.5336 -1.92507 -87.0928
rradius 65.8667
rwrist 9.6961
rhand -33.5674 6.99687
rfingers 7.12502
rthumb -6.76198 -22.8752
lclavicle -5.40694e-014 -6.36111e-015
lhumerus -29.2692 23.278 76.2051
lradius 69.1461
lwrist -29.423
lhand -28.6798 3.06986
lfingers 7.12502
lthumb -2.04247 33.0398
rfemur 17.1595 -4.69223 17.4569
rtibia 51.3118
rfoot -2.41167 1.98446
rtoes -9.2014
lfemur -37.4736 5.96219 -26.8787
ltibia 59.1638
lfoot -16.1251 -17.7599
ltoes -8.07356
